<?xml version="1.0" standalone="no"?>
<!DOCTYPE svg PUBLIC "-//W3C//DTD SVG 20010904//EN"
 "http://www.w3.org/TR/2001/REC-SVG-20010904/DTD/svg10.dtd">
<svg version="1.0" xmlns="http://www.w3.org/2000/svg"
 width="2048.000000pt" height="2048.000000pt" viewBox="0 0 2048.000000 2048.000000"
 preserveAspectRatio="xMidYMid meet">
<metadata>
Created by potrace 1.14, written by Peter Selinger 2001-2017
</metadata>
<g transform="translate(0.000000,2048.000000) scale(0.100000,-0.100000)"
fill="#000000" stroke="none">
<path d="M9848 20475 c-2 -2 -68 -6 -148 -10 -80 -3 -161 -8 -180 -10 -19 -2
-71 -6 -115 -9 -84 -7 -130 -11 -230 -22 -33 -3 -73 -8 -90 -9 -76 -6 -423
-54 -515 -70 -14 -3 -54 -10 -90 -16 -287 -47 -736 -151 -1062 -243 -185 -53
-541 -166 -583 -185 -11 -5 -67 -26 -125 -46 -97 -35 -329 -124 -375 -145 -11
-5 -114 -50 -230 -100 -194 -85 -564 -264 -701 -341 -362 -200 -660 -379 -841
-506 -35 -23 -67 -43 -72 -43 -5 0 -11 -4 -13 -8 -1 -4 -48 -39 -103 -77 -616
-424 -1281 -1016 -1800 -1605 -409 -464 -725 -889 -1058 -1421 -66 -107 -257
-436 -257 -444 0 -2 -14 -28 -31 -57 -61 -103 -277 -541 -349 -708 -18 -41
-44 -100 -57 -130 -102 -224 -274 -696 -373 -1020 -22 -74 -47 -155 -55 -180
-13 -41 -71 -259 -81 -302 -9 -42 -13 -56 -29 -118 -9 -36 -19 -76 -21 -90 -3
-14 -11 -52 -19 -85 -21 -91 -73 -344 -80 -395 -3 -25 -8 -52 -10 -60 -2 -8
-7 -31 -10 -50 -3 -19 -10 -60 -15 -90 -5 -30 -12 -77 -15 -105 -4 -27 -8 -57
-10 -65 -2 -8 -7 -42 -11 -75 -3 -33 -8 -69 -10 -80 -3 -11 -7 -45 -10 -75 -3
-30 -7 -66 -9 -80 -18 -166 -22 -215 -30 -320 -4 -47 -8 -99 -10 -116 -26
-225 -26 -1197 0 -1449 3 -22 7 -74 10 -115 7 -101 13 -168 31 -325 9 -86 14
-129 20 -165 6 -47 12 -86 19 -140 3 -25 8 -61 12 -80 3 -19 7 -48 9 -64 4
-26 21 -127 39 -228 8 -43 12 -69 20 -113 4 -22 11 -53 15 -70 5 -16 12 -48
15 -70 3 -22 12 -67 20 -100 24 -100 56 -239 61 -260 2 -11 22 -87 44 -170 22
-82 43 -160 45 -173 7 -31 46 -158 102 -332 26 -80 48 -147 48 -150 1 -3 4
-12 8 -20 3 -8 15 -44 28 -80 50 -149 198 -531 249 -645 10 -22 32 -73 50
-114 255 -586 630 -1244 1023 -1796 147 -206 514 -675 567 -725 3 -3 34 -39
70 -80 208 -240 577 -617 820 -835 36 -32 83 -74 105 -94 82 -75 357 -304 460
-383 6 -4 35 -27 65 -51 61 -48 238 -180 285 -213 17 -11 85 -59 152 -106 66
-47 125 -87 130 -89 4 -2 62 -40 128 -83 509 -337 1152 -669 1770 -916 94 -37
204 -80 245 -95 41 -14 84 -31 95 -36 11 -5 70 -26 130 -46 108 -37 113 -37
255 -37 118 1 155 5 202 21 176 62 288 191 321 370 9 46 12 147 11 318 -2 138
-6 823 -10 1523 -5 1005 -4 1275 6 1287 8 10 9 15 2 15 -8 0 -8 9 -2 28 5 15
12 45 14 67 3 22 5 40 6 40 1 0 3 16 5 35 1 19 5 49 9 65 8 36 13 64 20 130
26 221 115 514 225 740 105 214 234 396 368 519 38 35 46 50 25 52 -14 1 -148
16 -172 20 -74 10 -107 14 -235 33 -147 22 -151 23 -285 47 -112 21 -117 22
-175 34 -27 6 -59 12 -70 14 -643 130 -1287 375 -1760 669 -378 235 -737 554
-975 866 -14 18 -30 38 -35 44 -14 16 -68 88 -80 108 -5 8 -41 61 -78 118 -84
126 -175 288 -255 454 -34 70 -62 130 -62 132 0 2 -11 28 -24 57 -44 98 -134
352 -180 508 -27 95 -91 349 -99 395 -3 17 -15 80 -26 140 -22 116 -45 256
-56 340 -3 28 -8 64 -10 80 -24 193 -42 417 -50 630 -6 145 -6 537 0 620 9
140 18 227 35 355 16 110 19 132 25 160 3 14 8 41 11 60 3 19 12 60 20 90 7
30 15 69 18 85 9 51 82 294 124 411 72 202 175 423 287 620 55 96 224 353 265
404 11 14 52 66 92 115 40 50 94 114 120 144 35 40 45 58 39 70 -17 31 -89
264 -106 341 -28 124 -44 205 -50 250 -4 30 -9 62 -10 71 -7 36 -17 129 -25
219 -8 96 -5 564 4 610 2 14 7 54 11 90 4 36 8 72 10 80 1 8 6 42 10 75 5 33
9 62 10 65 4 19 16 81 21 115 3 22 8 43 10 46 2 3 6 21 9 40 13 76 77 303 124
439 99 289 75 256 193 269 190 21 457 -11 733 -86 126 -34 288 -84 300 -93 6
-4 24 -10 40 -14 17 -4 44 -14 60 -21 17 -7 76 -32 131 -54 379 -150 859 -410
1333 -721 l115 -76 226 57 c192 49 406 97 504 114 14 3 38 7 54 10 140 26 259
46 317 55 39 5 88 12 110 15 61 9 95 13 150 20 28 3 61 8 75 10 14 2 61 7 105
11 44 3 87 8 96 9 14 3 128 13 234 20 370 27 1022 27 1379 0 118 -8 280 -23
341 -30 22 -3 63 -8 90 -10 43 -5 167 -21 230 -30 11 -1 43 -6 70 -10 28 -3
57 -8 65 -10 8 -2 40 -7 70 -10 30 -3 62 -8 70 -10 12 -4 132 -26 320 -61 55
-10 372 -86 491 -117 l126 -33 49 34 c105 71 425 272 434 272 6 0 10 3 10 8 0
4 10 12 23 18 12 6 65 35 117 66 645 373 1206 588 1730 663 128 18 434 8 453
-15 28 -36 190 -559 211 -683 3 -15 7 -35 10 -45 3 -9 7 -28 10 -42 2 -14 11
-63 19 -110 9 -47 18 -107 21 -135 3 -27 8 -59 10 -70 20 -101 29 -610 13
-765 -4 -41 -10 -102 -13 -135 -3 -33 -7 -62 -10 -66 -2 -4 -6 -27 -9 -50 -17
-136 -81 -393 -131 -525 -30 -80 -30 -82 2 -119 64 -74 110 -129 126 -149 9
-11 40 -50 68 -86 61 -77 235 -334 275 -405 15 -27 31 -54 35 -60 24 -32 156
-302 208 -426 52 -127 142 -385 157 -452 2 -12 16 -69 30 -127 40 -163 57
-252 70 -360 4 -30 8 -57 10 -60 2 -3 6 -39 9 -80 4 -41 9 -91 12 -110 15
-123 22 -606 10 -800 -3 -47 -8 -130 -12 -185 -3 -55 -7 -118 -10 -140 -2 -22
-6 -67 -9 -100 -3 -33 -8 -76 -10 -95 -3 -19 -8 -55 -10 -79 -7 -73 -38 -282
-51 -351 -3 -14 -7 -36 -10 -50 -75 -404 -205 -838 -336 -1120 -11 -25 -32
-70 -45 -100 -39 -88 -128 -256 -163 -310 -6 -8 -13 -22 -17 -30 -15 -36 -198
-305 -268 -395 -117 -150 -267 -312 -406 -440 -113 -103 -137 -123 -259 -217
-244 -187 -522 -352 -800 -478 -63 -28 -129 -58 -147 -66 -170 -77 -620 -227
-842 -280 -123 -29 -231 -54 -251 -58 -14 -3 -56 -12 -95 -20 -77 -17 -94 -20
-210 -40 -177 -32 -315 -54 -375 -61 -60 -7 -124 -16 -146 -20 -11 -3 -52 -7
-90 -10 -104 -10 -104 -9 -45 -66 136 -133 258 -302 351 -488 43 -87 116 -260
125 -296 1 -5 5 -17 8 -25 6 -13 43 -143 52 -180 25 -106 63 -310 70 -380 9
-84 18 -179 21 -225 5 -60 4 -1626 -1 -2510 -3 -576 -2 -636 14 -695 45 -168
169 -299 322 -340 75 -20 81 -21 179 -21 86 -1 112 2 175 15 50 11 495 174
598 220 18 8 66 28 107 44 72 29 193 83 345 152 91 41 463 227 540 270 33 18
74 41 90 50 17 9 57 32 90 50 251 138 734 449 981 631 111 81 333 250 367 279
12 10 63 51 113 92 107 86 178 147 330 283 252 225 613 586 814 815 41 47 82
92 90 100 9 8 35 40 60 70 25 30 47 57 50 60 13 11 180 217 260 320 27 36 54
70 58 75 33 40 264 362 333 465 95 140 230 351 306 480 123 207 143 241 143
244 0 2 27 52 61 112 114 205 306 597 414 849 7 17 22 50 33 75 121 272 343
909 427 1225 8 28 26 95 40 150 15 55 29 108 31 117 2 10 6 26 8 35 36 155 66
287 70 305 6 28 46 225 51 253 2 11 11 61 19 110 9 50 18 101 21 115 3 14 7
45 10 69 3 24 12 84 20 135 13 86 18 121 30 226 3 25 7 61 10 80 3 19 7 67 11
105 3 39 8 84 10 100 1 17 6 71 9 120 4 50 9 106 11 125 19 187 26 958 11
1225 -9 172 -15 263 -22 335 -3 30 -7 84 -10 120 -3 36 -7 79 -10 95 -2 17 -7
61 -11 100 -3 38 -8 78 -10 88 -2 11 -6 45 -10 76 -3 31 -8 65 -10 75 -2 11
-8 56 -14 100 -12 87 -35 230 -55 341 -4 17 -24 118 -46 225 -22 107 -42 206
-45 220 -41 210 -234 874 -329 1132 -15 40 -36 98 -47 128 -11 30 -24 64 -28
75 -5 11 -27 67 -49 125 -98 254 -222 533 -368 825 -63 127 -118 235 -122 240
-5 6 -32 55 -61 110 -29 55 -59 108 -68 118 -8 9 -12 17 -9 17 3 0 -12 28 -33
63 -22 34 -56 91 -76 127 -80 139 -350 557 -381 588 -7 8 -18 23 -25 35 -12
24 -79 115 -212 292 -642 854 -1464 1645 -2331 2245 -214 147 -672 440 -689
440 -2 0 -33 17 -67 39 -35 21 -93 53 -127 72 -35 19 -87 47 -115 62 -80 44
-454 232 -543 272 -471 217 -987 410 -1429 535 -77 22 -153 44 -170 50 -36 11
-349 90 -385 96 -14 3 -61 13 -105 24 -44 10 -118 26 -165 35 -47 9 -114 23
-150 30 -36 8 -83 16 -105 19 -22 4 -65 11 -95 16 -74 13 -106 18 -160 25 -25
3 -56 8 -70 10 -14 3 -47 7 -75 10 -27 3 -77 10 -110 15 -33 5 -89 12 -125 15
-36 3 -76 7 -90 10 -14 2 -61 7 -105 10 -44 3 -91 8 -105 10 -14 2 -74 7 -135
10 -60 4 -132 9 -160 11 -61 5 -952 13 -957 9z"/>
<path d="M12636 13408 c3 -5 10 -6 15 -3 13 9 11 12 -6 12 -8 0 -12 -4 -9 -9z"/>
<path d="M12668 13409 c-5 -14 -49 -18 -65 -6 -8 6 -13 6 -13 0 0 -5 -12 -8
-27 -8 -16 1 -38 -5 -50 -12 -14 -8 -23 -9 -23 -3 0 5 -4 10 -9 10 -5 0 -8 -8
-7 -17 1 -13 -8 -19 -27 -21 -21 -3 -26 -7 -18 -16 7 -9 4 -12 -11 -13 -11 -1
-27 -11 -35 -23 -8 -11 -19 -17 -25 -14 -6 4 -8 2 -5 -3 4 -6 0 -14 -9 -17 -8
-3 -12 -10 -9 -16 3 -5 0 -7 -8 -4 -8 3 -18 0 -23 -7 -4 -7 -3 -10 4 -6 6 5 6
-1 -1 -17 -7 -14 -16 -24 -22 -23 -5 1 -11 -8 -13 -21 -2 -13 -10 -26 -18 -29
-20 -8 -17 -23 4 -17 13 4 12 2 -3 -7 -35 -22 -41 -45 -21 -78 6 -9 5 -12 -1
-8 -6 4 -10 -39 -10 -116 0 -67 1 -116 4 -109 3 6 9 12 14 12 6 0 5 -9 -2 -21
-8 -16 -8 -20 1 -14 7 4 10 1 8 -11 -2 -12 2 -18 11 -16 12 3 12 0 1 -12 -10
-13 -10 -16 2 -16 10 0 14 -8 13 -24 -2 -17 1 -23 11 -19 9 3 12 -2 9 -17 -3
-18 -2 -20 10 -10 11 9 15 9 15 1 0 -26 13 -43 43 -54 11 -4 15 -12 11 -18 -4
-8 -3 -9 4 -5 7 4 12 2 12 -4 0 -7 6 -10 14 -7 8 3 22 -5 32 -19 11 -13 29
-24 41 -24 13 0 23 -4 23 -10 0 -5 13 -10 28 -10 15 0 33 -5 39 -11 6 -6 41
-11 77 -12 39 -1 66 -5 66 -11 0 -6 4 -5 9 3 5 7 14 10 20 7 6 -4 11 -2 11 5
0 8 4 8 15 -1 13 -11 14 -10 10 2 -4 10 0 15 12 15 53 0 74 4 68 13 -5 8 7 12
31 9 3 0 13 9 23 20 14 16 20 18 31 8 10 -10 12 -9 7 6 -6 16 9 23 37 18 5 -1
3 5 -4 14 -11 13 -10 14 5 9 13 -5 16 -4 11 4 -4 7 -1 12 8 12 9 0 16 7 16 15
0 8 11 17 25 21 24 6 31 23 25 64 -1 10 3 9 14 -5 13 -16 15 -17 10 -3 -4 11
0 20 10 24 9 3 16 14 15 23 0 10 -2 11 -6 4 -2 -7 -10 -13 -16 -13 -7 1 -3 8
9 18 11 10 20 27 19 39 -1 12 2 20 7 17 4 -3 8 2 8 11 0 10 5 13 13 9 8 -5 8
-2 -2 9 -10 13 -10 17 -1 17 7 0 10 7 6 15 -3 8 -9 22 -12 30 -4 9 -1 15 8 15
8 0 14 10 14 24 0 14 -4 22 -8 20 -4 -3 -8 0 -8 5 0 19 -2 26 -11 43 -7 14 -6
16 6 12 8 -4 15 -1 15 5 0 6 -7 11 -15 11 -11 0 -12 5 -5 26 14 36 12 43 -4
15 -8 -15 -16 -20 -20 -12 -4 6 -3 11 3 11 5 0 9 9 8 20 -1 11 -5 20 -10 20
-5 0 -6 7 -3 16 3 8 2 13 -3 10 -12 -8 -23 23 -14 37 4 7 -2 5 -12 -3 -10 -8
-16 -10 -12 -3 4 6 3 14 -3 18 -5 3 -10 11 -10 16 0 6 4 7 10 4 6 -3 7 1 3 10
-3 9 -9 13 -12 8 -3 -4 -12 -9 -20 -11 -12 -3 -12 -1 0 14 9 12 9 15 2 10 -7
-4 -13 -3 -13 1 0 5 -7 18 -15 29 -15 19 -15 19 -9 -1 3 -12 -1 -9 -11 8 -8
15 -18 27 -21 27 -3 0 -2 -4 1 -10 3 -6 -1 -7 -9 -4 -8 3 -18 14 -21 24 -3 11
-12 17 -20 14 -7 -3 -16 -1 -19 5 -4 6 -14 7 -24 4 -14 -6 -15 -4 -5 8 11 13
8 15 -20 11 -30 -5 -31 -4 -17 13 15 18 14 18 -13 0 -26 -16 -27 -16 -21 0 6
15 4 16 -14 6 -18 -10 -22 -9 -22 4 0 9 -5 13 -11 10 -6 -4 -28 -8 -49 -10
-30 -3 -37 0 -33 11 3 8 3 14 0 14 -3 0 -7 -5 -9 -11z m-133 -29 c-3 -5 -12
-10 -18 -10 -7 0 -6 4 3 10 19 12 23 12 15 0z m-288 -295 c0 -8 -4 -15 -9 -15
-10 0 -11 14 -1 23 9 10 10 9 10 -8z m-4 -230 c4 -8 3 -16 -1 -19 -4 -3 -9 4
-9 15 -2 23 3 25 10 4z"/>
<path d="M7797 13394 c5 -13 2 -14 -13 -7 -22 12 -47 6 -38 -9 4 -5 -4 -4 -17
3 -22 11 -23 11 -10 -5 12 -14 12 -16 -1 -11 -8 3 -21 -1 -28 -10 -10 -12 -16
-13 -28 -3 -13 10 -14 10 -8 1 4 -8 2 -13 -8 -13 -8 0 -17 -4 -20 -9 -4 -5 4
-7 16 -5 16 4 14 1 -7 -9 -16 -8 -34 -12 -40 -9 -5 3 -7 2 -3 -3 9 -9 -16 -35
-34 -35 -10 0 -9 -3 2 -10 13 -9 13 -10 0 -10 -18 0 -51 -35 -43 -44 4 -3 -2
-6 -13 -7 -12 0 -14 -3 -6 -6 10 -4 7 -9 -10 -17 -14 -7 -22 -19 -20 -30 2
-10 -2 -24 -9 -32 -9 -11 -9 -14 0 -14 7 0 9 -5 6 -10 -4 -6 -12 -7 -18 -3 -7
4 -5 -2 3 -12 9 -11 10 -16 3 -11 -7 4 -13 3 -13 -1 0 -5 6 -15 13 -22 9 -10
9 -12 0 -7 -9 5 -12 -19 -10 -103 1 -60 6 -113 11 -118 5 -5 6 -2 1 6 -6 10
-4 12 4 7 9 -6 9 -11 0 -22 -10 -12 -6 -18 12 -16 3 1 4 -11 1 -25 -3 -18 -1
-24 7 -19 6 4 11 1 11 -6 0 -26 25 -68 37 -63 7 2 15 -1 19 -7 4 -7 3 -8 -4
-4 -7 4 -12 3 -12 -2 0 -5 11 -15 25 -22 13 -7 22 -16 20 -20 -6 -10 24 -22
35 -15 5 3 12 0 16 -6 4 -8 3 -9 -4 -5 -7 4 -12 1 -12 -9 0 -9 4 -14 9 -11 14
9 42 -5 35 -16 -4 -5 4 -8 17 -6 17 2 23 -1 21 -11 -3 -12 0 -12 13 -1 8 7 18
10 22 6 3 -3 1 -6 -5 -6 -7 0 -12 -4 -12 -9 0 -4 12 -7 27 -5 15 1 31 -2 35
-9 4 -6 23 -12 43 -13 22 -2 33 2 29 8 -4 6 1 6 14 -1 28 -15 55 -14 46 2 -6
10 -4 10 7 0 7 -7 17 -13 22 -13 4 0 5 6 1 13 -6 10 -4 10 7 0 14 -14 33 -18
25 -5 -2 4 5 14 17 22 21 12 21 12 7 -5 -14 -17 -14 -17 7 -7 12 7 23 15 25
19 3 5 3 2 2 -4 -5 -19 13 -16 20 2 3 9 11 15 18 14 26 -3 39 1 33 11 -3 6 3
10 14 10 13 0 21 7 21 16 0 14 3 14 16 4 8 -8 14 -9 13 -4 -4 21 2 35 11 29 6
-3 10 -1 10 5 0 6 4 9 9 5 11 -6 33 28 26 39 -3 3 -2 4 1 2 3 -2 15 5 26 16
15 15 17 22 8 28 -8 5 -8 9 4 13 8 3 17 1 20 -6 2 -7 5 -4 5 5 1 9 9 22 19 28
14 9 13 10 -6 4 -23 -6 -24 -6 -5 13 10 11 23 17 28 14 6 -2 3 4 -5 14 -9 11
-10 16 -2 11 6 -4 13 -4 13 1 1 4 3 21 5 36 1 16 9 36 16 45 8 10 9 13 1 9 -8
-5 -11 0 -10 13 1 11 4 20 7 20 4 0 7 7 7 15 0 8 -4 12 -9 9 -4 -3 -8 2 -8 11
0 9 5 13 10 10 6 -3 10 -1 10 4 0 6 -5 11 -11 11 -8 0 -7 6 2 17 8 9 9 14 3
10 -7 -4 -15 1 -19 11 -12 27 -14 43 -4 36 5 -3 9 2 9 11 0 9 -4 14 -9 11 -5
-3 -12 1 -15 10 -5 12 -2 15 10 10 14 -5 15 -4 4 9 -7 8 -16 12 -21 10 -4 -3
-6 7 -3 22 5 27 5 27 -10 8 -15 -19 -16 -19 -6 8 9 26 4 33 -24 28 -5 -1 -3 6
4 16 8 10 11 15 6 11 -5 -4 -15 0 -23 8 -8 8 -19 11 -25 8 -5 -4 -5 4 2 16 8
15 8 20 1 16 -6 -4 -11 0 -12 11 0 10 -3 13 -6 6 -8 -22 -22 -14 -18 9 4 16 2
19 -7 10 -16 -16 -29 -15 -25 1 1 6 -4 11 -12 9 -9 -2 -11 3 -7 14 6 15 4 15
-11 3 -11 -9 -14 -10 -9 -1 7 12 -4 16 -31 13 -7 -1 -13 5 -13 14 0 8 -3 14
-7 14 -5 -1 -20 -1 -35 0 -21 1 -26 5 -21 19 5 14 3 14 -11 -3 -10 -11 -15
-15 -12 -9 3 7 -5 14 -19 16 -14 3 -25 1 -25 -4 0 -5 -5 -6 -10 -3 -6 4 -8 10
-6 14 3 4 -1 8 -9 8 -8 0 -12 -3 -10 -7 2 -4 -9 -7 -25 -8 -17 0 -30 5 -30 11
0 7 -4 6 -10 -3 -8 -12 -13 -13 -29 -3 -17 11 -19 10 -14 -3z m-303 -232 c3
-5 -1 -9 -9 -9 -8 0 -12 4 -9 9 3 4 7 8 9 8 2 0 6 -4 9 -8z m-30 -298 c3 -8 2
-12 -4 -9 -6 3 -10 10 -10 16 0 14 7 11 14 -7z"/>
<path d="M8325 13040 c3 -5 8 -10 11 -10 2 0 4 5 4 10 0 6 -5 10 -11 10 -5 0
-7 -4 -4 -10z"/>
<path d="M13155 12910 c3 -5 8 -10 11 -10 2 0 4 5 4 10 0 6 -5 10 -11 10 -5 0
-7 -4 -4 -10z"/>
<path d="M9945 10970 c2 -4 -34 -6 -82 -6 -60 1 -87 -3 -90 -12 -3 -7 -18 -11
-39 -9 -18 3 -31 0 -28 -4 4 -8 -35 -14 -59 -10 -5 1 -6 -3 -2 -9 3 -5 -3 -10
-14 -10 -12 0 -21 -4 -21 -10 0 -5 -3 -9 -7 -8 -13 4 -73 -26 -73 -36 0 -4 -7
-6 -15 -2 -10 3 -15 -1 -15 -11 0 -9 -3 -14 -6 -11 -3 4 -18 -7 -33 -23 -15
-16 -31 -26 -35 -22 -4 4 -9 -3 -13 -15 -3 -12 -9 -20 -13 -17 -5 3 -11 -4
-15 -15 -3 -11 -11 -20 -16 -20 -5 0 -9 -7 -9 -16 0 -9 -5 -12 -12 -8 -8 5 -9
0 -6 -14 4 -12 1 -25 -4 -29 -7 -3 -8 -1 -4 5 4 7 2 12 -3 12 -6 0 -11 -7 -11
-15 0 -8 -4 -15 -10 -15 -5 0 -10 -5 -10 -11 0 -5 4 -8 9 -5 5 4 4 -5 -2 -18
-7 -13 -14 -23 -18 -21 -3 2 -6 -1 -7 -8 -9 -63 -16 -86 -23 -81 -13 8 -11
-10 4 -25 10 -11 10 -13 0 -7 -16 9 -18 -30 -3 -39 8 -5 7 -11 -1 -21 -9 -12
-9 -20 1 -39 7 -13 10 -31 7 -39 -4 -9 1 -20 11 -25 9 -6 13 -11 8 -11 -5 0
-3 -7 4 -15 6 -8 9 -19 5 -25 -4 -7 2 -14 15 -17 16 -4 18 -8 8 -14 -11 -7
-11 -9 1 -9 8 0 11 -6 7 -16 -3 -8 -2 -13 2 -11 4 3 16 -5 27 -16 12 -11 14
-17 5 -13 -8 4 -5 -1 8 -12 12 -11 22 -28 22 -37 0 -9 4 -14 8 -11 10 6 43
-30 35 -38 -4 -3 1 -6 10 -6 11 0 17 -8 18 -22 0 -13 3 -17 6 -10 4 9 10 7 22
-7 10 -12 21 -17 25 -14 4 4 4 -1 0 -11 -5 -13 -4 -17 3 -13 6 4 13 0 17 -8 3
-8 13 -15 23 -15 15 0 16 -2 3 -10 -12 -8 -12 -10 -1 -10 7 0 24 -11 37 -26
13 -14 24 -21 25 -17 0 4 4 -2 9 -14 5 -13 16 -23 25 -23 8 0 15 -7 15 -15 0
-14 12 -20 33 -16 5 1 6 -3 3 -7 -7 -11 50 -73 58 -64 3 3 6 0 6 -8 0 -7 21
-33 48 -58 26 -25 47 -50 47 -56 1 -6 6 -10 13 -9 7 2 12 -4 12 -12 0 -8 5
-15 11 -15 5 0 7 -4 4 -10 -3 -5 0 -10 7 -10 7 0 19 -13 26 -30 8 -16 21 -30
30 -30 8 0 12 -3 9 -6 -11 -12 14 -46 29 -40 9 3 12 2 9 -5 -10 -15 15 -69 31
-69 8 0 13 -3 12 -7 -3 -13 14 -56 28 -70 7 -8 10 -21 7 -30 -4 -11 -3 -14 5
-9 11 6 17 -12 13 -36 0 -5 3 -8 7 -8 4 0 9 -10 9 -22 1 -13 7 -24 12 -26 5
-2 8 -9 5 -17 -3 -7 -1 -16 4 -19 6 -3 8 -15 5 -25 -3 -10 0 -22 7 -26 8 -5 8
-10 -1 -21 -9 -11 -9 -14 1 -14 9 0 10 -3 1 -13 -6 -8 -8 -17 -4 -21 10 -10
11 -46 1 -46 -4 0 -7 -3 -6 -7 1 -5 -1 -23 -5 -41 -5 -23 -11 -31 -19 -26 -9
6 -9 3 1 -9 11 -14 11 -18 -1 -22 -8 -3 -21 -21 -28 -40 -8 -19 -17 -35 -22
-35 -4 0 -8 -5 -8 -11 0 -10 -45 -59 -54 -59 -2 0 -18 -13 -36 -30 -18 -16
-36 -27 -41 -24 -5 3 -8 0 -7 -8 2 -7 -3 -12 -9 -10 -7 1 -13 -3 -13 -9 0 -5
-4 -7 -10 -4 -5 3 -10 1 -10 -5 0 -7 -7 -9 -16 -6 -8 3 -12 2 -9 -4 3 -6 0
-10 -7 -10 -7 0 -30 -9 -50 -19 -19 -11 -38 -17 -42 -14 -3 3 -12 1 -19 -5 -7
-7 -22 -13 -33 -15 -10 -2 -26 -7 -34 -10 -21 -8 -71 -18 -97 -20 -13 -1 -23
-5 -23 -8 0 -3 -10 -5 -22 -4 -13 1 -27 0 -33 -4 -5 -3 -34 -6 -62 -7 -29 -1
-60 -7 -68 -14 -12 -10 -16 -9 -21 5 -5 12 -9 14 -15 4 -5 -9 -37 -12 -106
-11 -54 0 -98 1 -98 2 0 3 -87 11 -142 12 -35 1 -63 6 -63 10 0 4 -3 7 -7 7
-28 -5 -113 2 -109 9 2 4 -3 8 -12 9 -9 0 -36 2 -59 4 -23 1 -40 6 -37 11 3 4
-13 8 -35 8 -23 0 -41 5 -41 10 0 6 -5 10 -11 10 -5 0 -7 -6 -3 -12 6 -10 4
-10 -7 0 -7 6 -26 12 -41 12 -16 0 -28 6 -28 13 0 8 -4 7 -10 -3 -5 -8 -10
-10 -10 -5 0 6 -16 10 -35 10 -22 0 -35 -5 -35 -13 0 -7 -4 -11 -8 -8 -5 3 -9
-8 -10 -24 0 -17 4 -30 9 -30 5 0 9 -7 9 -16 0 -9 8 -23 18 -31 10 -9 11 -12
2 -7 -8 3 -3 -5 13 -20 15 -15 27 -31 27 -36 0 -6 3 -9 8 -9 4 1 14 1 22 0 13
-1 13 -2 0 -11 -13 -9 -13 -10 0 -11 8 -1 18 -1 23 0 4 0 7 -6 7 -15 0 -10 5
-14 16 -10 9 3 12 2 9 -5 -4 -6 2 -13 14 -16 11 -3 19 -8 17 -12 -4 -6 18 -30
31 -34 5 -1 7 -6 5 -11 -2 -5 5 -3 15 4 10 8 15 10 11 6 -10 -11 11 -38 23
-30 5 3 12 -2 15 -10 6 -17 58 -46 81 -46 8 0 12 -4 9 -8 -3 -5 12 -14 32 -21
20 -8 45 -20 55 -29 9 -8 17 -12 17 -8 0 4 10 1 23 -6 12 -7 25 -11 30 -10 4
1 7 -2 7 -8 0 -5 11 -10 25 -10 14 0 25 -4 25 -10 0 -5 14 -10 30 -10 17 0 30
-4 30 -10 0 -5 11 -10 25 -10 14 0 25 -4 25 -10 0 -5 11 -10 25 -10 14 0 33
-4 43 -9 18 -10 82 -24 117 -25 11 -1 25 -8 32 -16 8 -10 12 -11 13 -3 0 9 7
10 24 3 13 -5 27 -6 30 -3 3 4 6 1 6 -6 0 -7 4 -10 9 -7 12 8 22 -20 15 -39
-4 -8 -1 -15 6 -15 10 0 9 -4 -1 -16 -10 -13 -10 -17 2 -25 11 -7 11 -9 1 -9
-10 0 -10 -4 2 -16 19 -18 21 -28 4 -18 -8 5 -9 0 -6 -14 4 -12 1 -25 -4 -28
-7 -4 -4 -10 6 -16 13 -7 14 -13 6 -23 -8 -10 -8 -15 0 -20 8 -5 8 -10 0 -20
-7 -9 -7 -15 -1 -19 6 -4 6 -17 -1 -36 -7 -23 -7 -34 2 -45 7 -8 8 -15 3 -15
-11 0 -11 -65 0 -76 10 -10 9 -26 -2 -20 -11 7 -6 -41 6 -57 10 -13 10 -54 0
-63 -3 -3 -2 -17 3 -30 7 -17 6 -24 -3 -24 -8 0 -7 -4 3 -10 11 -7 11 -10 2
-10 -10 0 -10 -5 -2 -20 6 -11 7 -20 3 -20 -4 0 -1 -5 7 -10 12 -8 12 -10 1
-10 -9 0 -11 -7 -7 -22 12 -38 14 -78 5 -72 -5 3 -9 0 -9 -5 0 -6 5 -11 10
-11 6 0 10 -5 10 -11 0 -5 -4 -8 -8 -5 -5 3 -9 -1 -9 -9 0 -8 5 -11 10 -8 6 4
8 0 4 -10 -4 -10 -1 -17 6 -17 8 0 8 -3 1 -8 -11 -8 -14 -52 -3 -52 8 0 7 -19
-2 -35 -3 -5 -2 -23 2 -40 3 -16 7 -24 8 -16 0 8 3 12 6 10 2 -3 1 -20 -5 -37
-5 -20 -5 -30 1 -27 5 4 9 1 9 -4 0 -6 -6 -11 -12 -12 -7 0 -4 -4 7 -9 11 -5
14 -9 7 -9 -8 -1 -10 -6 -5 -13 8 -13 13 -44 13 -85 0 -13 6 -23 13 -23 8 0 7
-4 -3 -10 -10 -6 -11 -10 -2 -10 6 0 12 -10 12 -23 0 -13 6 -29 12 -35 10 -10
10 -15 -2 -22 -10 -7 -11 -10 -2 -10 6 0 12 -11 12 -25 0 -14 5 -25 10 -25 6
0 10 -12 10 -26 0 -14 4 -23 10 -19 6 3 10 2 10 -4 0 -5 -6 -12 -12 -14 -10
-4 -10 -6 0 -6 6 -1 12 -10 12 -21 0 -11 5 -20 11 -20 7 0 9 -10 7 -24 -3 -16
0 -27 10 -31 8 -3 12 -8 9 -12 -4 -3 -1 -13 6 -21 9 -13 9 -14 0 -8 -9 5 -11
2 -7 -8 3 -9 10 -14 15 -11 4 3 13 -13 20 -35 7 -22 16 -40 21 -40 4 0 8 -7 8
-15 0 -8 9 -19 20 -25 11 -6 20 -17 20 -25 0 -8 7 -15 16 -15 8 0 12 -5 9 -10
-4 -6 -3 -9 2 -8 17 4 53 -14 47 -24 -5 -7 0 -9 14 -6 15 4 22 2 22 -7 0 -8 5
-17 12 -21 7 -5 9 -2 4 7 -4 8 0 5 8 -5 9 -11 16 -17 16 -13 0 3 20 0 45 -7
25 -8 45 -11 45 -8 0 4 4 1 9 -7 5 -8 25 -13 50 -13 25 1 41 -4 41 -11 0 -7 4
-6 10 3 6 9 10 10 10 3 0 -15 423 -17 451 -3 12 7 19 6 22 -3 4 -9 6 -9 6 1 1
7 15 12 36 12 19 0 35 4 35 9 0 4 11 7 25 6 14 -2 25 2 25 8 0 5 3 7 7 4 3 -4
15 1 26 10 11 10 17 12 13 6 -4 -7 -2 -13 3 -13 6 0 11 5 11 10 0 6 7 10 16
10 9 0 12 5 8 12 -5 8 -2 9 9 5 10 -4 17 -1 17 5 0 6 3 8 6 5 4 -4 15 3 25 14
9 11 20 20 24 19 10 -2 55 37 55 49 0 6 4 11 9 11 5 0 16 16 25 35 10 20 21
33 25 31 4 -3 7 10 6 29 0 18 2 32 5 30 3 -2 12 0 20 6 9 5 10 9 3 9 -6 0 -9
9 -6 20 3 11 10 20 15 20 5 0 6 5 3 10 -3 6 0 10 7 10 9 0 9 3 -2 10 -10 6
-11 10 -2 10 6 0 12 9 12 19 0 11 5 23 10 26 6 3 10 17 10 31 0 14 4 23 8 20
7 -4 12 14 14 54 0 8 5 20 9 26 5 6 10 23 11 38 1 14 5 26 9 26 4 0 6 8 4 18
-1 9 1 24 6 33 5 10 3 21 -4 29 -9 10 -9 11 1 6 11 -7 17 25 15 82 -1 6 4 12
9 12 6 0 6 6 -1 14 -8 10 -9 16 -1 21 6 3 8 10 5 15 -3 5 -1 11 4 15 7 4 7 15
1 30 -7 17 -6 25 1 25 8 0 8 4 0 14 -8 9 -8 16 -2 20 6 4 7 14 4 23 -5 11 -3
14 6 8 10 -6 11 -3 1 15 -8 15 -8 20 -1 16 16 -10 13 6 -6 34 -15 22 -15 23
-1 12 15 -12 17 -5 17 80 0 143 0 140 14 133 6 -4 3 1 -7 9 -11 9 -15 16 -8
16 6 0 9 7 5 17 -4 10 -2 14 4 10 5 -3 10 0 10 8 0 8 -4 12 -9 9 -10 -7 -10
-1 2 31 7 17 7 24 0 20 -6 -3 -10 -1 -10 4 0 6 3 11 8 11 10 0 8 102 -3 119
-5 10 -4 12 3 7 7 -4 12 -1 12 9 0 10 -5 13 -12 9 -8 -5 -8 -1 1 10 13 15 13
19 0 27 -8 5 -9 9 -4 9 15 0 17 50 2 50 -8 0 -7 4 3 10 8 5 11 10 6 10 -5 0
-3 7 4 15 9 11 9 15 1 15 -9 0 -9 5 0 21 8 16 8 20 -1 14 -9 -6 -9 -3 -1 12 7
14 7 23 -1 31 -9 9 -9 12 0 12 9 0 10 5 2 19 -7 13 -7 22 0 26 5 3 10 13 10
21 0 10 -5 12 -12 8 -9 -6 -9 -3 0 9 8 9 11 20 8 25 -3 5 0 9 7 10 7 0 26 3
42 6 17 2 36 5 43 5 7 1 11 4 9 9 -3 4 16 8 41 9 25 1 48 6 51 10 3 4 20 8 38
8 17 -1 31 4 30 10 -1 5 8 9 20 7 12 -2 24 2 28 8 3 5 17 10 30 10 13 0 25 4
27 9 2 6 15 12 30 15 14 2 36 9 47 16 12 6 21 8 21 4 0 -4 10 1 22 12 13 12
18 13 13 4 -6 -11 -3 -10 12 3 11 9 23 14 26 10 4 -3 7 -2 7 4 0 6 11 14 25
17 14 4 25 12 25 19 0 8 4 7 10 -3 6 -10 10 -11 10 -2 0 6 7 12 15 12 8 0 15
5 15 10 0 6 9 10 21 10 11 0 17 5 14 10 -3 6 -1 10 5 10 7 0 25 9 41 21 16 11
29 18 29 14 0 -3 12 6 26 20 14 14 30 22 36 19 7 -4 8 -2 4 4 -4 7 -2 12 4 12
6 0 8 5 5 10 -5 9 16 15 38 11 5 -1 5 3 2 9 -4 7 2 14 14 17 11 3 18 9 15 14
-3 5 2 9 10 9 9 0 16 8 16 17 0 9 3 14 6 11 7 -8 62 45 57 54 -2 4 6 12 18 18
11 7 18 14 16 17 -3 2 -1 18 3 34 7 23 5 31 -6 36 -7 3 -14 10 -14 17 0 7 -19
11 -50 11 -27 0 -50 -2 -50 -5 0 -5 -19 -9 -57 -12 -7 -1 -13 -5 -13 -10 0 -4
-15 -8 -34 -8 -19 0 -38 -5 -41 -10 -4 -6 -14 -10 -23 -9 -36 3 -73 -1 -69 -8
3 -5 -20 -9 -50 -10 -30 -1 -62 -8 -71 -15 -12 -9 -14 -10 -8 0 4 6 2 12 -3
12 -6 0 -11 -4 -11 -9 0 -5 -17 -8 -37 -6 -21 1 -52 -2 -70 -6 -21 -4 -34 -3
-37 5 -3 7 -5 7 -5 -2 -1 -10 -6 -10 -22 -1 -13 7 -19 7 -15 1 4 -6 -2 -11
-11 -11 -10 0 -58 0 -108 0 -100 -1 -114 1 -134 13 -10 6 -12 5 -7 -3 6 -8 1
-10 -17 -6 -13 4 -39 7 -58 8 -19 2 -40 6 -46 10 -8 5 -13 3 -13 -4 0 -8 -5
-7 -17 2 -9 8 -18 13 -20 12 -9 -7 -64 -2 -59 5 2 4 -11 8 -31 9 -19 0 -39 6
-43 13 -6 9 -9 9 -13 -1 -4 -10 -6 -10 -6 -1 -1 6 -12 12 -26 12 -14 0 -25 5
-25 10 0 6 -9 10 -19 10 -11 0 -23 5 -26 11 -4 6 -13 8 -21 5 -8 -3 -14 -1
-14 5 0 6 -7 9 -15 5 -8 -3 -15 -1 -15 4 0 5 -9 12 -20 15 -11 4 -17 11 -14
17 4 6 3 8 -3 5 -5 -4 -25 5 -43 18 -18 13 -38 22 -44 18 -6 -3 -8 -3 -4 2 8
9 -36 55 -53 55 -5 0 -9 5 -9 11 0 15 -26 39 -35 31 -4 -4 -6 -2 -5 3 5 23 -1
46 -10 40 -9 -6 -14 8 -11 28 0 4 -4 7 -10 7 -5 0 -8 3 -6 8 3 4 -3 24 -13 45
-10 20 -13 34 -7 30 8 -5 8 -2 0 8 -10 12 -10 18 0 29 6 7 7 10 1 7 -7 -4 -11
11 -11 43 -1 28 4 50 9 50 6 0 5 6 -2 15 -8 10 -9 15 -2 15 6 0 9 6 6 14 -3 8
0 17 5 21 6 3 9 11 6 16 -4 5 -2 9 3 9 6 0 8 9 5 20 -3 12 0 20 7 20 8 0 11 9
7 26 -3 19 -1 24 10 20 8 -3 12 -2 9 2 -3 5 2 21 9 36 8 16 13 32 10 36 -3 5
0 12 6 16 8 4 9 3 5 -4 -4 -7 -5 -12 -2 -12 2 0 11 13 19 30 11 21 12 30 3 34
-6 2 -3 5 7 5 11 1 17 9 17 24 0 15 3 18 8 9 6 -8 13 -1 22 23 8 19 17 35 21
35 4 0 16 13 25 29 10 17 22 27 27 24 5 -3 4 5 -3 17 -7 13 -8 20 -2 16 13 -8
82 53 82 72 0 7 5 10 10 7 6 -3 10 1 10 10 0 9 5 13 10 10 6 -3 10 -2 10 3 0
14 36 52 44 45 3 -3 6 1 6 11 0 9 5 14 10 11 6 -3 10 1 10 9 0 9 7 16 15 16 8
0 14 6 12 13 -1 6 4 11 10 10 7 -2 12 3 10 10 -1 6 4 11 11 10 11 -3 17 10 12
32 -1 5 2 7 6 2 10 -10 44 22 44 42 0 13 2 13 9 3 6 -10 10 -9 14 7 3 12 12
21 21 21 10 0 16 9 16 23 0 18 2 19 10 7 9 -15 11 -14 14 13 1 6 7 11 14 10 7
-2 11 3 9 10 -1 6 4 11 11 10 6 -2 12 5 12 15 0 14 2 15 10 2 9 -13 10 -13 11
0 1 8 1 18 0 23 0 4 6 7 14 7 9 0 15 9 15 23 0 18 2 19 10 7 8 -13 10 -13 10
2 0 10 9 22 21 28 11 7 18 14 16 17 -3 2 9 18 26 35 18 17 23 24 12 17 -19
-14 -19 -14 0 12 11 15 24 24 29 21 5 -3 6 -1 3 5 -4 6 0 18 7 29 8 10 12 24
9 30 -2 7 1 15 6 19 6 3 9 11 6 16 -4 5 -2 9 3 9 6 0 8 8 5 19 -3 10 0 22 6
25 6 4 11 12 11 17 0 6 -6 7 -12 3 -9 -5 -9 -2 1 9 11 14 11 20 0 34 -10 11
-10 14 -1 9 7 -4 12 -1 12 8 0 9 -6 16 -12 16 -9 0 -8 4 2 11 12 8 12 12 2 16
-10 4 -10 8 0 21 10 12 10 14 1 8 -9 -5 -13 0 -13 18 0 14 -4 28 -10 31 -5 3
-10 15 -10 26 0 10 -5 19 -11 19 -6 0 -8 7 -5 16 3 8 2 12 -4 9 -9 -6 -14 8
-11 28 0 4 -4 7 -9 7 -13 0 -51 61 -44 72 3 4 -4 8 -15 8 -12 0 -21 5 -21 11
0 6 -7 17 -15 25 -8 9 -15 13 -15 10 0 -3 -13 8 -28 24 -16 16 -32 27 -35 23
-4 -3 -7 -1 -7 6 0 7 -4 9 -10 6 -5 -3 -10 -1 -10 4 0 6 -7 11 -15 11 -8 0
-15 5 -15 10 0 6 -9 10 -21 10 -11 0 -18 4 -15 8 2 4 -5 9 -16 9 -12 1 -24 6
-27 10 -3 5 -17 10 -30 10 -13 1 -27 6 -30 10 -3 4 -17 8 -31 8 -14 0 -30 3
-36 7 -6 4 -20 6 -32 3 -12 -2 -22 -1 -22 3 0 4 -43 7 -95 7 -52 0 -95 -3 -95
-6 0 -4 -15 -3 -34 1 -19 4 -40 4 -47 -1 -7 -4 -20 -4 -28 -1 -14 7 -96 8
-111 2 -14 -5 -51 -6 -54 -1 -6 9 -210 6 -224 -3 -7 -4 -12 -4 -12 1 0 4 -26
9 -58 10 -31 1 -76 4 -99 6 -23 2 -40 0 -38 -3z"/>
</g>
</svg>
